<svg width="40" height="40" viewBox="0 0 40 40" fill="none" xmlns="http://www.w3.org/2000/svg">
<path fill-rule="evenodd" clip-rule="evenodd" d="M28.9833 28.9684C27.795 28.9684 26.8083 29.9567 26.8083 31.1517C26.8083 32.3434 27.795 33.335 28.9833 33.335C30.1717 33.335 31.1583 32.3434 31.1583 31.1517C31.1583 29.9567 30.1717 28.9684 28.9833 28.9684ZM13.7617 28.9684C12.5733 28.9684 11.5867 29.9567 11.5867 31.1517C11.5867 32.3434 12.5733 33.335 13.7617 33.335C14.95 33.335 15.9367 32.3434 15.9367 31.1517C15.9367 29.9567 14.95 28.9684 13.7617 28.9684ZM30.0367 25.5334C30.6317 25.5334 31.1583 26.16 31.1583 26.7567C31.1583 27.355 30.6667 27.9817 30.0717 27.9817H12.675C12.3866 27.9791 12.1108 27.8631 11.9072 27.6588C11.7035 27.4546 11.5884 27.1784 11.5867 26.89C11.5867 26.525 11.9533 25.8 12.2683 25.2134C12.4983 24.785 12.5667 24.2917 12.465 23.815L9.61667 8.84835H7.75334C7.46537 8.84573 7.18999 8.72995 6.98667 8.526C6.78335 8.32206 6.66841 8.04633 6.66667 7.75835C6.66667 7.16169 7.16 6.66669 7.75334 6.66669H10.71C11.8483 6.66669 11.8833 8.03169 12.0517 8.84835H32.245C32.84 8.84835 33.3333 9.34335 33.3333 9.94002L31.07 18.135C30.7564 19.0422 30.2013 19.8468 29.4644 20.462C28.7276 21.0773 27.837 21.4799 26.8883 21.6267L14.6283 23.5134C14.6283 23.5134 14.915 23.9417 14.915 24.455C14.915 24.9684 14.4067 25.5334 14.4067 25.5334H30.0367ZM12.5517 11.3484L14.45 20.885L26.6033 19.185C27.0935 19.1036 27.5503 18.8841 27.9202 18.5523C28.2901 18.2205 28.5577 17.7902 28.6917 17.3117L30.475 11.18L12.5517 11.3484Z" fill="#A9A9A9"/>
</svg>
