<svg width="40" height="40" viewBox="0 0 40 40" fill="none" xmlns="http://www.w3.org/2000/svg">
<path fill-rule="evenodd" clip-rule="evenodd" d="M9.405 32.0683C9.07041 32.008 8.77265 31.8192 8.57525 31.5424C8.37784 31.2656 8.29641 30.9226 8.34833 30.5866C8.87666 27.0166 11.0483 23.6066 14.2233 21.8466L14.9883 21.4233L14.3383 20.8366C12.8919 19.5286 11.9625 17.7453 11.7188 15.8105C11.4751 13.8756 11.9332 11.9175 13.01 10.2916C14.0737 8.65015 15.7077 7.46086 17.5967 6.95331C18.9448 6.58132 20.366 6.56222 21.7237 6.89784C23.0813 7.23346 24.3299 7.91253 25.3494 8.86982C26.369 9.82712 27.1253 11.0305 27.5457 12.3643C27.9661 13.6982 28.0364 15.1178 27.75 16.4866C27.3983 18.2233 26.4133 19.77 25.1 20.9583L24.5867 21.425L25.3517 21.8466C28.4783 23.58 30.66 27.065 31.235 30.6133C31.2631 30.7933 31.2524 30.9772 31.2034 31.1526C31.1545 31.3281 31.0686 31.491 30.9514 31.6304C30.8342 31.7699 30.6885 31.8826 30.5241 31.961C30.3597 32.0394 30.1804 32.0817 29.9983 32.085C29.3867 32.0933 28.8367 31.6683 28.7433 31.0633C27.8767 25.4233 21.965 20.9183 15.9067 23.8566C13.1933 25.1733 11.3833 28.0416 10.8833 31.045C10.854 31.2095 10.7925 31.3666 10.7022 31.5073C10.6119 31.6479 10.4946 31.7693 10.3572 31.8644C10.2198 31.9596 10.0649 32.0265 9.90148 32.0615C9.73806 32.0965 9.56932 32.0988 9.405 32.0683ZM14.1933 14.8016C14.1955 16.2843 14.7856 17.7055 15.8341 18.7537C16.8826 19.8019 18.304 20.3916 19.7867 20.3933C21.2701 20.3924 22.6927 19.803 23.742 18.7543C24.7912 17.7056 25.3816 16.2835 25.3833 14.8C25.3816 13.3163 24.7913 11.894 23.7421 10.8451C22.6928 9.79615 21.2703 9.2063 19.7867 9.20498C18.3035 9.20674 16.8816 9.79684 15.8329 10.8458C14.7843 11.8947 14.1947 13.3185 14.1933 14.8016Z" fill="#A9A9A9"/>
</svg>
