<svg width="44" height="44" viewBox="0 0 44 44" fill="none" xmlns="http://www.w3.org/2000/svg">
<path d="M34.5968 11H9.40316C8.26002 11 7.33333 11.9267 7.33333 13.0698V27.6705C7.33333 28.8136 8.26002 29.7403 9.40316 29.7403H34.5968C35.74 29.7403 36.6667 28.8136 36.6667 27.6705V13.0698C36.6667 11.9267 35.74 11 34.5968 11Z" fill="#090909"/>
<path d="M16.4578 34.0597L16.8245 29.0693C16.8435 28.8083 16.9608 28.5642 17.1527 28.3863C17.3446 28.2084 17.5968 28.1098 17.8585 28.1105H24.4768C25.4815 28.1105 25.8958 29.403 25.0763 29.9878L18.0913 34.9763C17.9315 35.0903 17.7426 35.1564 17.5466 35.167C17.3506 35.1776 17.1556 35.1321 16.9845 35.036C16.8134 34.9398 16.6732 34.797 16.5802 34.6241C16.4873 34.4512 16.4436 34.2554 16.4578 34.0597Z" fill="#090909"/>
</svg>
